<?xml version="1.0" standalone="no"?>
<!DOCTYPE svg PUBLIC "-//W3C//DTD SVG 20010904//EN"
 "http://www.w3.org/TR/2001/REC-SVG-20010904/DTD/svg10.dtd">
<svg version="1.0" xmlns="http://www.w3.org/2000/svg"
 width="840.000000pt" height="840.000000pt" viewBox="0 0 840.000000 840.000000"
 preserveAspectRatio="xMidYMid meet">
<metadata>
Created by potrace 1.14, written by Peter Selinger 2001-2017
</metadata>
<g transform="translate(0.000000,840.000000) scale(0.100000,-0.100000)"
fill="#000000" stroke="none">
<path d="M3394 8371 c-9 -9 -2 -1736 7 -1793 5 -31 11 -78 13 -105 3 -26 5
-48 6 -48 1 0 4 -13 6 -30 4 -24 35 -149 59 -235 2 -8 13 -40 25 -70 12 -30
25 -66 29 -80 29 -88 221 -430 242 -430 5 0 9 -5 9 -11 0 -28 221 -269 320
-349 24 -19 51 -42 60 -50 47 -45 494 -320 520 -320 5 0 10 -3 12 -7 6 -15
272 -153 294 -153 8 0 14 -4 14 -10 0 -5 6 -10 14 -10 7 0 35 -9 62 -19 63
-25 183 -62 206 -64 10 -1 18 -5 18 -10 0 -4 4 -6 8 -3 4 3 28 0 53 -5 132
-31 251 -43 424 -43 155 0 351 18 427 40 9 3 25 7 35 9 51 12 165 45 218 64
33 12 65 23 70 25 6 1 41 17 79 34 38 18 70 32 73 32 2 0 21 11 43 25 22 14
40 22 40 19 0 -4 8 0 18 8 9 8 76 48 147 88 72 40 133 78 137 84 4 6 8 8 8 3
0 -7 47 19 60 33 3 3 16 11 30 17 14 7 51 27 82 45 61 35 391 226 420 243 73
43 175 101 183 104 6 2 12 7 15 10 3 3 23 15 45 26 22 11 42 23 45 26 3 4 29
19 58 35 29 16 61 34 70 39 9 6 36 21 59 34 l42 24 -26 46 c-14 25 -33 57 -40
71 -8 14 -23 39 -33 55 -11 17 -23 37 -27 45 -4 8 -37 68 -75 132 -37 64 -68
121 -68 126 0 6 -3 12 -8 14 -10 4 -132 214 -132 228 0 5 -4 10 -8 10 -5 0
-14 16 -22 35 -8 19 -17 35 -21 35 -4 0 -9 8 -12 18 -4 9 -20 40 -37 67 -16
28 -42 73 -56 100 -15 28 -29 52 -33 55 -7 6 -28 42 -50 85 -8 17 -29 53 -46
80 -17 28 -37 63 -45 79 -28 55 -35 66 -42 66 -5 0 -8 7 -8 15 0 29 -28 26
-83 -9 -31 -20 -58 -36 -61 -36 -5 0 -57 -30 -156 -90 -43 -26 -310 -178 -349
-200 -26 -13 -52 -30 -59 -37 -7 -7 -24 -16 -38 -19 -13 -3 -24 -10 -24 -15 0
-5 -4 -9 -9 -9 -5 0 -55 -27 -111 -60 -56 -33 -106 -60 -111 -60 -5 0 -9 -4
-9 -10 0 -5 -5 -10 -10 -10 -12 0 -172 -90 -180 -100 -3 -4 -10 -9 -15 -11
-11 -4 -223 -124 -285 -161 -19 -11 -56 -32 -82 -47 -26 -14 -141 -81 -256
-147 l-209 -121 -184 105 -184 105 1 58 c0 33 4 62 7 65 3 3 2 17 -3 30 -6 14
-6 26 1 29 5 4 6 11 3 17 -8 13 -9 236 -1 244 3 3 2 17 -3 30 -6 14 -6 26 1
29 5 4 6 11 3 17 -8 13 -9 236 -1 244 3 3 2 17 -3 30 -6 14 -6 26 1 29 5 4 6
11 3 17 -8 13 -9 236 -1 244 3 3 2 17 -3 30 -6 14 -6 26 1 29 5 4 6 11 3 17
-8 13 -9 236 -1 244 3 3 2 17 -3 30 -6 14 -6 26 1 29 5 4 6 11 3 17 -8 13 -9
236 -1 244 3 3 2 17 -3 30 -6 14 -6 26 1 29 5 4 6 11 3 17 -8 13 -9 236 -1
244 3 3 2 17 -3 30 -6 14 -6 26 1 29 5 4 6 11 3 17 -4 5 -6 42 -5 82 2 93 1
107 -3 131 -3 20 -11 20 -800 20 -438 0 -799 -2 -802 -4z"/>
<path d="M922 6878 c-33 -57 -69 -119 -80 -139 -41 -74 -47 -84 -52 -89 -4 -4
-18 -29 -64 -115 -6 -11 -14 -22 -17 -25 -3 -3 -21 -34 -40 -70 -19 -35 -39
-70 -44 -76 -6 -6 -19 -30 -29 -53 -11 -22 -23 -41 -28 -41 -4 0 -8 -5 -8 -10
0 -8 -175 -318 -220 -390 -5 -8 -19 -33 -31 -55 -11 -22 -24 -42 -28 -45 -3
-3 -15 -23 -27 -45 -11 -22 -32 -61 -47 -86 l-26 -47 177 -102 c97 -57 195
-112 217 -124 22 -12 42 -23 45 -26 5 -5 24 -16 99 -57 25 -14 51 -30 58 -35
7 -5 27 -17 45 -27 56 -29 83 -46 90 -56 4 -5 8 -7 8 -3 0 4 25 -8 55 -27 30
-19 59 -35 65 -35 5 0 10 -4 10 -8 0 -4 12 -13 28 -19 15 -7 47 -24 72 -39 25
-15 59 -35 75 -44 17 -9 54 -31 83 -49 29 -17 57 -31 62 -31 6 0 10 -4 10 -10
0 -5 4 -10 9 -10 5 0 49 -23 98 -51 48 -28 102 -60 120 -70 17 -10 50 -29 72
-43 22 -15 43 -26 45 -26 2 0 39 -20 80 -45 42 -25 81 -45 86 -45 6 0 10 -4
10 -9 0 -5 9 -13 20 -16 11 -4 48 -23 83 -44 34 -21 82 -49 107 -63 25 -14 60
-34 77 -44 l33 -19 1 -165 c1 -91 0 -169 -1 -175 -2 -5 -2 -26 -1 -46 1 -30
-3 -37 -31 -52 -36 -18 -92 -50 -179 -103 -31 -19 -62 -34 -68 -34 -6 0 -11
-4 -11 -8 0 -8 -71 -46 -79 -42 -2 1 -7 -3 -10 -8 -3 -5 -33 -24 -66 -42 -33
-18 -67 -38 -75 -44 -8 -7 -28 -18 -45 -26 -16 -8 -34 -19 -40 -23 -5 -4 -89
-52 -185 -107 -96 -54 -180 -104 -187 -109 -7 -6 -14 -11 -17 -11 -4 0 -138
-77 -286 -164 -25 -15 -53 -29 -62 -33 -10 -3 -18 -9 -18 -13 0 -4 -11 -11
-24 -14 -14 -3 -31 -12 -38 -19 -8 -6 -29 -20 -48 -30 -72 -39 -95 -52 -100
-59 -3 -4 -17 -11 -30 -17 -14 -6 -43 -22 -65 -36 -22 -14 -47 -28 -55 -32 -8
-4 -74 -42 -148 -85 -73 -43 -137 -78 -142 -78 -22 0 -19 -24 8 -72 35 -63
118 -207 132 -228 6 -8 13 -22 17 -30 4 -8 24 -43 45 -78 21 -34 38 -64 38
-66 0 -3 27 -50 60 -106 33 -56 60 -106 60 -111 0 -5 5 -9 10 -9 6 0 10 -4 10
-10 0 -8 72 -138 100 -180 6 -8 18 -31 28 -50 9 -19 19 -37 22 -40 7 -7 29
-43 37 -60 4 -8 32 -58 63 -110 31 -52 59 -102 63 -110 4 -8 18 -33 32 -55 14
-22 28 -47 32 -55 19 -41 26 -39 243 87 118 69 233 135 255 148 22 12 101 57
175 100 74 43 144 83 155 89 11 6 22 14 25 17 3 4 15 9 28 13 12 4 22 12 22
17 0 5 9 9 19 9 11 0 22 4 25 9 3 4 99 62 213 127 114 65 210 122 211 126 2 5
8 8 14 8 17 0 208 128 288 194 116 95 271 256 348 361 50 68 192 298 192 310
0 2 13 32 29 67 34 73 75 177 77 196 2 8 6 21 10 30 4 9 9 26 11 36 2 11 10
38 17 60 8 23 17 57 20 76 3 19 8 46 11 60 11 52 19 109 30 225 9 85 4 790 -5
790 -1 0 -3 18 -5 40 -4 57 -16 139 -22 148 -3 5 -6 18 -8 30 -6 40 -16 82
-25 112 -6 17 -10 33 -10 37 0 5 -11 37 -24 72 -14 35 -22 67 -19 70 4 3 1 6
-5 6 -7 0 -12 8 -12 18 0 19 -113 250 -155 317 -14 22 -30 50 -37 63 -6 12
-15 22 -20 22 -4 0 -8 4 -8 10 0 24 -120 169 -245 296 -120 121 -391 324 -434
324 -6 0 -11 5 -11 10 0 6 -5 10 -11 10 -6 0 -30 14 -54 30 -24 17 -46 30 -50
30 -6 0 -217 121 -225 130 -3 3 -25 15 -50 27 -46 23 -52 27 -127 75 -22 14
-51 29 -62 33 -11 3 -27 12 -34 18 -7 7 -30 21 -51 32 -22 11 -44 25 -50 30
-6 6 -29 19 -51 30 -44 22 -144 80 -160 92 -6 4 -28 17 -50 29 -22 11 -56 30
-75 41 -195 113 -300 173 -304 173 -2 0 -31 -46 -64 -102z"/>
<path d="M5767 3894 c-1 -1 -47 -4 -102 -7 -55 -3 -109 -8 -120 -10 -11 -2
-42 -8 -70 -12 -102 -16 -133 -22 -200 -40 -206 -55 -392 -139 -663 -302 -20
-12 -44 -25 -52 -29 -15 -8 -117 -67 -155 -91 -11 -7 -28 -16 -37 -19 -10 -3
-18 -10 -18 -15 0 -5 -5 -9 -11 -9 -9 0 -93 -54 -109 -70 -3 -3 -32 -25 -65
-50 -78 -59 -257 -236 -327 -325 -143 -182 -260 -396 -333 -610 -55 -161 -48
-129 -104 -450 -5 -27 -8 -448 -8 -934 l2 -884 775 1 c426 1 787 1 801 1 l27
1 0 1176 c0 1231 -2 1193 39 1194 7 0 16 6 20 13 4 7 19 18 33 25 36 17 108
58 122 69 7 6 44 27 82 48 61 32 72 36 90 25 11 -7 40 -23 65 -36 24 -13 49
-28 55 -33 6 -4 39 -23 74 -42 34 -18 62 -36 62 -41 0 -4 6 -8 13 -8 6 0 65
-32 130 -70 66 -39 123 -70 128 -70 5 0 9 -4 9 -10 0 -5 5 -10 10 -10 9 0 269
-147 320 -180 8 -6 31 -18 50 -28 19 -9 37 -20 38 -24 2 -5 10 -8 18 -8 8 0
14 -4 14 -10 0 -5 5 -10 11 -10 6 0 48 -23 95 -50 47 -28 89 -50 94 -50 6 0
10 -4 10 -10 0 -5 4 -10 10 -10 8 0 128 -67 180 -100 8 -5 49 -29 90 -52 41
-23 89 -51 105 -61 17 -9 38 -20 48 -23 9 -4 17 -10 17 -15 0 -5 4 -9 10 -9 5
0 70 -36 146 -80 75 -44 138 -80 141 -80 3 0 17 -9 32 -19 15 -11 32 -17 37
-13 6 4 28 39 49 77 22 39 44 77 50 86 5 9 20 34 31 55 24 42 258 449 273 474
21 33 110 187 127 220 11 19 22 37 25 40 3 3 12 17 20 32 8 15 30 55 50 90 20
35 45 79 56 98 11 19 43 74 71 122 l50 87 -24 16 c-13 8 -28 15 -34 15 -5 0
-10 5 -10 10 0 6 -4 10 -9 10 -7 0 -64 30 -111 60 -71 45 -311 180 -320 180
-5 0 -10 3 -10 8 0 4 -10 12 -23 18 -39 19 -142 77 -147 83 -5 6 -52 32 -125
70 -16 9 -32 18 -35 21 -9 10 -172 100 -181 100 -5 0 -9 4 -9 9 0 5 -8 11 -17
14 -16 6 -59 30 -138 78 -16 10 -41 24 -55 30 -13 5 -27 13 -30 17 -3 4 -21
15 -40 26 -19 10 -48 26 -65 35 -169 96 -414 194 -527 212 -4 0 -31 7 -60 15
-29 8 -73 16 -98 19 -25 3 -55 7 -68 9 -45 9 -288 25 -295 20z"/>
</g>
</svg>
